{"title":"Alan Jackson - Here In The Real World FLAC","uid":4843879,"size":203656978,"categoryP":"audio","categoryS":"flac","magnet":"?xt=urn:btih:3f81dfd2586138c6bab504e302576d190fd1bd50&amp;dn=Alan+Jackson+-+Here+In+The+Real+World+FLAC&amp;tr=udp%3A%2F%2Ftracker.openbittorrent.com%3A80&amp;tr=udp%3A%2F%2Fopen.demonii.com%3A1337&amp;tr=udp%3A%2F%2Ftracker.coppersurfer.tk%3A6969&amp;tr=udp%3A%2F%2Fexodus.desync.com%3A6969","seeders":1,"leechers":0,"uploader":"disimagery2","files":11,"time":1239608034,"description":"Exact Audio Copy V0.99 prebeta 4 from 23. January 2008\n\nEAC extraction logfile from 12. April 2009, 22:29\n\nAlan Jackson / Here In The Real World\n\nUsed drive  : ATAPI   DVD D  DH16D3P   Adapter: 0  ID: 1\n\nRead mode               : Secure\nUtilize accurate stream : Yes\nDefeat audio cache      : No\nMake use of C2 pointers : No\n\nRead offset correction                      : 6\nOverread into Lead-In and Lead-Out          : No\nFill up missing offset samples with silence : Yes\nDelete leading and trailing silent blocks   : No\nNull samples used in CRC calculations       : No\nUsed interface                              : Installed external ASPI interface\nGap handling                                : Not detected, thus appended to previous track\n\nUsed output format : Internal WAV Routines\nSample format      : 44.100 Hz; 16 Bit; Stereo\n\n\nTOC of the extracted CD\n\n     Track |   Start  |  Length  | Start sector | End sector \n    ---------------------------------------------------------\n        1  |  0:00.32 |  3:06.53 |        32    |    14034   \n        2  |  3:07.10 |  3:38.20 |     14035    |    30404   \n        3  |  6:45.30 |  2:14.32 |     30405    |    40486   \n        4  |  8:59.62 |  2:59.15 |     40487    |    53926   \n        5  | 11:59.02 |  3:06.53 |     53927    |    67929   \n        6  | 15:05.55 |  2:46.47 |     67930    |    80426   \n        7  | 17:52.27 |  3:11.23 |     80427    |    94774   \n        8  | 21:03.50 |  2:20.00 |     94775    |   105274   \n        9  | 23:23.50 |  3:18.27 |    105275    |   120151   \n       10  | 26:42.02 |  2:29.58 |    120152    |   131384   \n\n\nTrack  1\n\n     Filename E:MusicAlan JacksonHere in the Real WorldAlan Jackson - Here In The Real World - 01. Ace of Hearts.wav\n\n     Peak level 97.2 %\n     Track quality 100.0 %\n     Copy CRC 807F776A\n     Accurately ripped (confidence 3)  [E05025AB]\n     Copy OK\n\nTrack  2\n\n     Filename E:MusicAlan JacksonHere in the Real WorldAlan Jackson - Here In The Real World - 02. Here In The Real World.wav\n\n     Peak level 94.7 %\n     Track quality 100.0 %\n     Copy CRC 46F6C602\n     Accurately ripped (confidence 3)  [802811D0]\n     Copy OK\n\nTrack  3\n\n     Filename E:MusicAlan JacksonHere in the Real WorldAlan Jackson - Here In The Real World - 03. Blue Blooded Woman.wav\n\n     Peak level 92.1 %\n     Track quality 100.0 %\n     Copy CRC 86982C21\n     Accurately ripped (confidence 3)  [5A0B2668]\n     Copy OK\n\nTrack  4\n\n     Filename E:MusicAlan JacksonHere in the Real WorldAlan Jackson - Here In The Real World - 04. Wanted.wav\n\n     Peak level 97.1 %\n     Track quality 100.0 %\n     Copy CRC C0020659\n     Accurately ripped (confidence 3)  [D987E527]\n     Copy OK\n\nTrack  5\n\n     Filename E:MusicAlan JacksonHere in the Real WorldAlan Jackson - Here In The Real World - 05. Chasin' That Neon Rainbow.wav\n\n     Peak level 81.9 %\n     Track quality 99.9 %\n     Copy CRC 024079A1\n     Accurately ripped (confidence 3)  [687BF5F4]\n     Copy OK\n\nTrack  6\n\n     Filename E:MusicAlan JacksonHere in the Real WorldAlan Jackson - Here In The Real World - 06. She Don't Get The Blues.wav\n\n     Peak level 76.7 %\n     Track quality 100.0 %\n     Copy CRC B3544B6F\n     Accurately ripped (confidence 3)  [7B094F65]\n     Copy OK\n\nTrack  7\n\n     Filename E:MusicAlan JacksonHere in the Real WorldAlan Jackson - Here In The Real World - 07. I'd Love You All Over Again.wav\n\n     Peak level 91.3 %\n     Track quality 99.9 %\n     Copy CRC 374840B2\n     Accurately ripped (confidence 3)  [2FB67FD0]\n     Copy OK\n\nTrack  8\n\n     Filename E:MusicAlan JacksonHere in the Real WorldAlan Jackson - Here In The Real World - 08. Dog River Blues.wav\n\n     Peak level 96.1 %\n     Track quality 100.0 %\n     Copy CRC CD0A746A\n     Accurately ripped (confidence 3)  [A810C24C]\n     Copy OK\n\nTrack  9\n\n     Filename E:MusicAlan JacksonHere in the Real WorldAlan Jackson - Here In The Real World - 09. Home.wav\n\n     Peak level 82.1 %\n     Track quality 100.0 %\n     Copy CRC B5D5DBEE\n     Accurately ripped (confidence 3)  [7F038F15]\n     Copy OK\n\nTrack 10\n\n     Filename E:MusicAlan JacksonHere in the Real WorldAlan Jackson - Here In The Real World - 10. Short Sweet Ride.wav\n\n     Peak level 100.0 %\n     Track quality 99.9 %\n     Copy CRC 2BBE5CBD\n     Accurately ripped (confidence 2)  [FDFC4FF1]\n     Copy OK\n\n\nAll tracks accurately ripped\n\nNo errors occurred\n\nEnd of status report\n","torrent":{"xt":"urn:btih:3f81dfd2586138c6bab504e302576d190fd1bd50","amp;dn":"Alan+Jackson+-+Here+In+The+Real+World+FLAC","amp;tr":["udp%3A%2F%2Ftracker.openbittorrent.com%3A80","udp%3A%2F%2Fopen.demonii.com%3A1337","udp%3A%2F%2Ftracker.coppersurfer.tk%3A6969","udp%3A%2F%2Fexodus.desync.com%3A6969"],"infoHash":"3f81dfd2586138c6bab504e302576d190fd1bd50","infoHashBuffer":{"type":"Buffer","data":[63,129,223,210,88,97,56,198,186,181,4,227,2,87,109,25,15,209,189,80]},"announce":[],"urlList":[]}}